<?xml version="1.0" encoding="utf-8"?>
<!-- Generator: Adobe Illustrator 21.0.2, SVG Export Plug-In . SVG Version: 6.00 Build 0)  -->
<svg version="1.1" id="Capa_1" xmlns="http://www.w3.org/2000/svg" xmlns:xlink="http://www.w3.org/1999/xlink" x="0px" y="0px"
	 viewBox="0 0 151.2 24.5" style="enable-background:new 0 0 151.2 24.5;" xml:space="preserve">
<style type="text/css">
	.st0{fill:url(#SVGID_1_);}
	.st1{fill:#73B8D3;}
</style>
<g>
	<linearGradient id="SVGID_1_" gradientUnits="userSpaceOnUse" x1="105.4227" y1="12.1615" x2="150.3734" y2="12.1615">
		<stop  offset="0" style="stop-color:#6D7295;stop-opacity:0"/>
		<stop  offset="1" style="stop-color:#6D7295"/>
	</linearGradient>
	<path class="st0" d="M150,18.9c-1,2.6-3.6,4.4-6.8,4.6v-4.6H150L150,18.9z M150.4,13.3v3.4c0,0.4,0,0.7-0.1,1.1h-7.1v-4.5H150.4
		L150.4,13.3z M150.4,7.2c0,0.1,0,0.3,0,0.4v4.5h-7.2V7.2H150.4L150.4,7.2z M143.1,0.9c3.5,0.2,6.3,2.4,7,5.3h-7V0.9L143.1,0.9z
		 M141.9,18.9v4.6h-8.3v-4.6H141.9L141.9,18.9z M141.9,13.3v4.5h-8.3v-4.5H141.9L141.9,13.3z M141.9,7.2v4.9h-8.3V7.2H141.9
		L141.9,7.2z M133.5,0.8h8.3v5.3h-8.3V0.8L133.5,0.8z M132.3,18.9v4.6h-8.5v-4.6H132.3L132.3,18.9z M132.3,13.3v4.5h-8.5v-4.5H132.3
		L132.3,13.3z M132.3,7.2v4.9h-8.5V7.2H132.3L132.3,7.2z M123.8,0.8h8.5v5.3h-8.5V0.8L123.8,0.8z M122.6,18.9v4.6h-8.7v-4.6H122.6
		L122.6,18.9z M122.6,13.3v4.5h-8.7v-4.5H122.6L122.6,13.3z M122.6,7.2v4.9h-8.7V7.2H122.6L122.6,7.2z M113.8,0.8h8.7v5.3h-8.7V0.8
		L113.8,0.8z M112.6,18.9v4.6c-3.1-0.2-5.8-2.1-6.7-4.6H112.6L112.6,18.9z M112.6,13.3v4.5h-7c-0.1-0.4-0.1-0.7-0.1-1.1v-3.4H112.6
		L112.6,13.3z M105.6,6.1c0.7-2.9,3.5-5,6.9-5.3v5.3H105.6L105.6,6.1z M105.4,7.7c0-0.1,0-0.3,0-0.4h7.1v4.9h-7.1V7.7L105.4,7.7z"/>
	<g>
		<path class="st1" d="M24.3,3.1l-2.4,4l-0.4-0.3c0.1-0.3,0.1-0.6,0.1-0.8c0-0.4-0.7-1-2-1.6C17.7,3.5,15.6,3,13.4,3
			c-3,0-5.4,0.8-7.3,2.5c-1.9,1.7-2.8,3.9-2.8,6.5c0,2.7,1,4.9,2.9,6.6c1.9,1.7,4.2,2.6,7,2.6c2.7,0,5.1-0.8,7.2-2.4
			c0.9-0.7,1.4-1.2,1.4-1.5c0-0.1-0.1-0.4-0.3-0.7l0.4-0.3l2.8,3.5l-0.4,0.3c-0.3-0.3-0.5-0.4-0.7-0.4c-0.1,0-0.3,0.1-0.6,0.3
			c-1,0.7-1.8,1.3-2.4,1.7c-0.6,0.4-1.4,0.7-2.1,0.9c-1.6,0.5-3.3,0.8-5.3,0.8c-3.7,0-6.7-1-9-3.1c-2.4-2.1-3.6-4.9-3.6-8.2
			c0-2.6,0.8-4.9,2.3-6.8c2.4-3,5.9-4.5,10.6-4.5c3.1,0,6.2,0.8,9.1,2.5c0.2,0.1,0.3,0.2,0.4,0.2c0.1,0,0.4-0.2,0.8-0.6L24.3,3.1z"
			/>
		<path class="st1" d="M46.6,11.7c2.5,0.9,3.8,2.7,3.8,5.5c0,1.3-0.3,2.5-1,3.5c-0.7,1-1.6,1.7-2.7,2.1c-1.1,0.4-2.8,0.6-4.9,0.6H29
			v-0.5c0.4-0.1,0.7-0.3,0.8-0.4c0.1-0.2,0.2-0.5,0.2-1V2.8c0-0.5-0.1-0.8-0.2-1c-0.1-0.2-0.4-0.3-0.8-0.4V0.9h13
			c1.3,0,2.3,0.1,3.2,0.3c0.8,0.2,1.6,0.6,2.2,1c1.5,1.1,2.2,2.7,2.2,4.7C49.7,9.1,48.6,10.7,46.6,11.7z M32.6,10.6H41
			c1.2,0,2.1,0,2.7-0.1c0.6-0.1,1.1-0.2,1.6-0.4c0.6-0.3,1.1-0.7,1.4-1.2c0.3-0.6,0.5-1.2,0.5-1.9c0-1-0.3-1.8-0.9-2.5
			c-0.5-0.5-1.1-0.9-1.9-1.1c-0.8-0.2-2-0.3-3.6-0.3h-8.3V10.6z M32.6,21.3h8.8c1.3,0,2.2,0,2.8-0.1c0.6-0.1,1.2-0.2,1.7-0.5
			c0.6-0.3,1.1-0.8,1.5-1.4c0.4-0.6,0.5-1.3,0.5-2.1c0-1.1-0.3-2-0.9-2.8c-0.5-0.6-1.2-1.1-2-1.3c-0.8-0.2-2.1-0.3-3.7-0.3h-8.6
			V21.3z"/>
		<path class="st1" d="M58.1,13.3v8.2c0,0.5,0.1,0.8,0.2,1c0.1,0.2,0.4,0.3,0.8,0.5v0.5h-4.6v-0.5c0.4-0.1,0.7-0.3,0.8-0.4
			c0.1-0.2,0.2-0.5,0.2-1V2.8c0-0.5-0.1-0.8-0.2-1c-0.1-0.2-0.4-0.3-0.8-0.4V0.9h12c1.6,0,2.9,0.1,3.9,0.3c1,0.2,1.8,0.5,2.5,1
			c0.7,0.5,1.3,1.1,1.8,1.9c0.5,0.9,0.8,1.9,0.8,3.1c0,1.7-0.6,3.1-1.7,4.2c-1.1,1.1-2.6,1.7-4.6,1.9l5.6,8.9
			c0.3,0.6,0.8,0.8,1.4,0.8v0.5h-5.1v-0.5c0.5-0.1,0.8-0.2,0.8-0.5c0-0.1-0.2-0.5-0.6-1.1l-5-8.1H58.1z M58.1,11.2h8.9
			c1.2,0,2.1-0.1,2.7-0.2c0.6-0.1,1.2-0.3,1.6-0.6c1.1-0.7,1.6-1.8,1.6-3.3c0-1.6-0.6-2.7-1.7-3.3c-0.5-0.3-1.1-0.5-1.7-0.6
			C69,3.1,68,3,66.7,3h-8.6V11.2z"/>
		<path class="st1" d="M100.2,2.6l-2.3,4.1l-0.4-0.2c0.2-0.5,0.3-0.8,0.3-0.9c0-0.3-0.4-0.7-1.2-1c-2.1-1-4.4-1.5-6.8-1.5
			c-2,0-3.7,0.4-5.2,1.1c-0.7,0.4-1.3,0.8-1.7,1.4c-0.4,0.6-0.6,1.2-0.6,1.8c0,0.5,0.2,1,0.5,1.5c0.3,0.5,0.7,0.8,1.3,1.1
			c0.6,0.3,1.3,0.4,2,0.6c0.8,0.1,2.1,0.2,3.8,0.2c2.5,0.1,4.2,0.2,5.3,0.3c1.1,0.2,1.9,0.4,2.6,0.8c1.8,1,2.7,2.6,2.7,4.6
			c0,2-0.8,3.6-2.5,4.8c-1.8,1.4-4.3,2.1-7.5,2.1c-1.8,0-3.5-0.2-4.8-0.6c-1.4-0.4-3-1.1-4.9-2.1c-0.5-0.2-0.8-0.4-0.9-0.4
			c-0.2,0-0.4,0.2-0.8,0.6l-0.4-0.3l2.4-4l0.4,0.3c-0.2,0.4-0.3,0.7-0.3,0.9c0,0.3,0.7,0.9,2,1.6c1.2,0.6,2.4,1.1,3.5,1.4
			c1.1,0.3,2.4,0.4,3.7,0.4c2.7,0,4.7-0.6,6.1-1.8c0.9-0.8,1.4-1.7,1.4-2.8c0-1.4-0.8-2.4-2.4-3c-0.5-0.2-1-0.3-1.6-0.3
			c-0.5,0-2.1-0.1-4.7-0.2c-1.8-0.1-3.3-0.2-4.3-0.4c-1-0.2-2-0.5-2.8-1c-0.8-0.4-1.4-1-1.8-1.8c-0.4-0.8-0.7-1.6-0.7-2.5
			c0-1.5,0.6-2.9,1.7-4c0.9-0.8,2-1.4,3.5-1.9c1.5-0.5,3.2-0.7,4.9-0.7c1.5,0,2.8,0.1,4.1,0.4c1.3,0.3,2.7,0.8,4.2,1.5
			C98.7,2.9,98.9,3,99,3c0.2,0,0.5-0.2,0.8-0.6L100.2,2.6z"/>
	</g>
</g>
</svg>
